<mxfile host="app.diagrams.net" modified="2023-09-19T16:20:11.250Z" agent="Mozilla/5.0 (Windows NT 10.0; Win64; x64) AppleWebKit/537.36 (KHTML, like Gecko) Chrome/117.0.0.0 Safari/537.36 Edg/117.0.2045.31" etag="MkNIE1VdipxGkBWkTWVq" version="21.7.5" type="google">
  <diagram name="PÃ¡gina-1" id="f9cImaGIhbRoOkNGSPxr">
    <mxGraphModel grid="1" page="1" gridSize="10" guides="1" tooltips="1" connect="1" arrows="1" fold="1" pageScale="1" pageWidth="827" pageHeight="1169" math="0" shadow="0">
      <root>
        <mxCell id="0" />
        <mxCell id="1" parent="0" />
        <mxCell id="iyi7Bei3RPa3BDMDdGdY-9" style="edgeStyle=orthogonalEdgeStyle;rounded=0;orthogonalLoop=1;jettySize=auto;html=1;endArrow=open;endFill=0;" edge="1" parent="1" source="UMqGmO_odd1n6ftgBJWI-1" target="UMqGmO_odd1n6ftgBJWI-5">
          <mxGeometry relative="1" as="geometry" />
        </mxCell>
        <mxCell id="iyi7Bei3RPa3BDMDdGdY-10" value="palabra" style="edgeLabel;html=1;align=center;verticalAlign=middle;resizable=0;points=[];" connectable="0" vertex="1" parent="iyi7Bei3RPa3BDMDdGdY-9">
          <mxGeometry x="0.7357" y="-4" relative="1" as="geometry">
            <mxPoint x="33" y="13" as="offset" />
          </mxGeometry>
        </mxCell>
        <mxCell id="UMqGmO_odd1n6ftgBJWI-1" value="Jugador" style="swimlane;fontStyle=1;align=center;verticalAlign=top;childLayout=stackLayout;horizontal=1;startSize=26;horizontalStack=0;resizeParent=1;resizeParentMax=0;resizeLast=0;collapsible=1;marginBottom=0;whiteSpace=wrap;html=1;" vertex="1" parent="1">
          <mxGeometry x="-70" y="180" width="270" height="164" as="geometry" />
        </mxCell>
        <mxCell id="UMqGmO_odd1n6ftgBJWI-2" value="+ intentos: int" style="text;strokeColor=none;fillColor=none;align=left;verticalAlign=top;spacingLeft=4;spacingRight=4;overflow=hidden;rotatable=0;points=[[0,0.5],[1,0.5]];portConstraint=eastwest;whiteSpace=wrap;html=1;" vertex="1" parent="UMqGmO_odd1n6ftgBJWI-1">
          <mxGeometry y="26" width="270" height="26" as="geometry" />
        </mxCell>
        <mxCell id="iyi7Bei3RPa3BDMDdGdY-5" value="+ nombre: str" style="text;strokeColor=none;fillColor=none;align=left;verticalAlign=top;spacingLeft=4;spacingRight=4;overflow=hidden;rotatable=0;points=[[0,0.5],[1,0.5]];portConstraint=eastwest;whiteSpace=wrap;html=1;" vertex="1" parent="UMqGmO_odd1n6ftgBJWI-1">
          <mxGeometry y="52" width="270" height="26" as="geometry" />
        </mxCell>
        <mxCell id="UMqGmO_odd1n6ftgBJWI-13" value="+ estadisticas: dict" style="text;strokeColor=none;fillColor=none;align=left;verticalAlign=top;spacingLeft=4;spacingRight=4;overflow=hidden;rotatable=0;points=[[0,0.5],[1,0.5]];portConstraint=eastwest;whiteSpace=wrap;html=1;" vertex="1" parent="UMqGmO_odd1n6ftgBJWI-1">
          <mxGeometry y="78" width="270" height="26" as="geometry" />
        </mxCell>
        <mxCell id="UMqGmO_odd1n6ftgBJWI-3" value="" style="line;strokeWidth=1;fillColor=none;align=left;verticalAlign=middle;spacingTop=-1;spacingLeft=3;spacingRight=3;rotatable=0;labelPosition=right;points=[];portConstraint=eastwest;strokeColor=inherit;" vertex="1" parent="UMqGmO_odd1n6ftgBJWI-1">
          <mxGeometry y="104" width="270" height="8" as="geometry" />
        </mxCell>
        <mxCell id="iyi7Bei3RPa3BDMDdGdY-3" value="+ ingresar_palabra() -&amp;gt; palabra_intento" style="text;strokeColor=none;fillColor=none;align=left;verticalAlign=top;spacingLeft=4;spacingRight=4;overflow=hidden;rotatable=0;points=[[0,0.5],[1,0.5]];portConstraint=eastwest;whiteSpace=wrap;html=1;" vertex="1" parent="UMqGmO_odd1n6ftgBJWI-1">
          <mxGeometry y="112" width="270" height="26" as="geometry" />
        </mxCell>
        <mxCell id="bw7rzwjcU0o7aJNVM1yu-1" value="+ intento_realizado()&amp;nbsp;" style="text;strokeColor=none;fillColor=none;align=left;verticalAlign=top;spacingLeft=4;spacingRight=4;overflow=hidden;rotatable=0;points=[[0,0.5],[1,0.5]];portConstraint=eastwest;whiteSpace=wrap;html=1;" vertex="1" parent="UMqGmO_odd1n6ftgBJWI-1">
          <mxGeometry y="138" width="270" height="26" as="geometry" />
        </mxCell>
        <mxCell id="UMqGmO_odd1n6ftgBJWI-5" value="PalabraOculta" style="swimlane;fontStyle=1;align=center;verticalAlign=top;childLayout=stackLayout;horizontal=1;startSize=26;horizontalStack=0;resizeParent=1;resizeParentMax=0;resizeLast=0;collapsible=1;marginBottom=0;whiteSpace=wrap;html=1;" vertex="1" parent="1">
          <mxGeometry x="600" y="167" width="280" height="190" as="geometry" />
        </mxCell>
        <mxCell id="UMqGmO_odd1n6ftgBJWI-6" value="+ palabra: str" style="text;strokeColor=none;fillColor=none;align=left;verticalAlign=top;spacingLeft=4;spacingRight=4;overflow=hidden;rotatable=0;points=[[0,0.5],[1,0.5]];portConstraint=eastwest;whiteSpace=wrap;html=1;" vertex="1" parent="UMqGmO_odd1n6ftgBJWI-5">
          <mxGeometry y="26" width="280" height="26" as="geometry" />
        </mxCell>
        <mxCell id="iyi7Bei3RPa3BDMDdGdY-4" value="+ estado_palabra: list[str]" style="text;strokeColor=none;fillColor=none;align=left;verticalAlign=top;spacingLeft=4;spacingRight=4;overflow=hidden;rotatable=0;points=[[0,0.5],[1,0.5]];portConstraint=eastwest;whiteSpace=wrap;html=1;" vertex="1" parent="UMqGmO_odd1n6ftgBJWI-5">
          <mxGeometry y="52" width="280" height="26" as="geometry" />
        </mxCell>
        <mxCell id="UMqGmO_odd1n6ftgBJWI-7" value="" style="line;strokeWidth=1;fillColor=none;align=left;verticalAlign=middle;spacingTop=-1;spacingLeft=3;spacingRight=3;rotatable=0;labelPosition=right;points=[];portConstraint=eastwest;strokeColor=inherit;" vertex="1" parent="UMqGmO_odd1n6ftgBJWI-5">
          <mxGeometry y="78" width="280" height="8" as="geometry" />
        </mxCell>
        <mxCell id="upBl9LyAuur83N1DJL_g-4" value="+ generar_palabra()" style="text;strokeColor=none;fillColor=none;align=left;verticalAlign=top;spacingLeft=4;spacingRight=4;overflow=hidden;rotatable=0;points=[[0,0.5],[1,0.5]];portConstraint=eastwest;whiteSpace=wrap;html=1;" vertex="1" parent="UMqGmO_odd1n6ftgBJWI-5">
          <mxGeometry y="86" width="280" height="26" as="geometry" />
        </mxCell>
        <mxCell id="bw7rzwjcU0o7aJNVM1yu-2" value="+ verificar_palabra(palabra_intento: str) -&amp;gt; bool" style="text;strokeColor=none;fillColor=none;align=left;verticalAlign=top;spacingLeft=4;spacingRight=4;overflow=hidden;rotatable=0;points=[[0,0.5],[1,0.5]];portConstraint=eastwest;whiteSpace=wrap;html=1;" vertex="1" parent="UMqGmO_odd1n6ftgBJWI-5">
          <mxGeometry y="112" width="280" height="26" as="geometry" />
        </mxCell>
        <mxCell id="ERLf68TuHUgOa1u6dan0-2" value="+ comparar_palabra(palabra_intento: str) -&amp;gt; list" style="text;strokeColor=none;fillColor=none;align=left;verticalAlign=top;spacingLeft=4;spacingRight=4;overflow=hidden;rotatable=0;points=[[0,0.5],[1,0.5]];portConstraint=eastwest;whiteSpace=wrap;html=1;" vertex="1" parent="UMqGmO_odd1n6ftgBJWI-5">
          <mxGeometry y="138" width="280" height="26" as="geometry" />
        </mxCell>
        <mxCell id="UMqGmO_odd1n6ftgBJWI-8" value="+ retroalimentar()" style="text;strokeColor=none;fillColor=none;align=left;verticalAlign=top;spacingLeft=4;spacingRight=4;overflow=hidden;rotatable=0;points=[[0,0.5],[1,0.5]];portConstraint=eastwest;whiteSpace=wrap;html=1;" vertex="1" parent="UMqGmO_odd1n6ftgBJWI-5">
          <mxGeometry y="164" width="280" height="26" as="geometry" />
        </mxCell>
        <mxCell id="iyi7Bei3RPa3BDMDdGdY-7" style="edgeStyle=orthogonalEdgeStyle;rounded=0;orthogonalLoop=1;jettySize=auto;html=1;endArrow=open;endFill=0;" edge="1" parent="1" source="UMqGmO_odd1n6ftgBJWI-9" target="UMqGmO_odd1n6ftgBJWI-1">
          <mxGeometry relative="1" as="geometry" />
        </mxCell>
        <mxCell id="iyi7Bei3RPa3BDMDdGdY-8" value="jugador" style="edgeLabel;html=1;align=center;verticalAlign=middle;resizable=0;points=[];" connectable="0" vertex="1" parent="iyi7Bei3RPa3BDMDdGdY-7">
          <mxGeometry x="0.856" relative="1" as="geometry">
            <mxPoint x="25" y="12" as="offset" />
          </mxGeometry>
        </mxCell>
        <mxCell id="iyi7Bei3RPa3BDMDdGdY-12" style="edgeStyle=orthogonalEdgeStyle;rounded=0;orthogonalLoop=1;jettySize=auto;html=1;endArrow=open;endFill=0;" edge="1" parent="1" source="UMqGmO_odd1n6ftgBJWI-9" target="UMqGmO_odd1n6ftgBJWI-5">
          <mxGeometry relative="1" as="geometry" />
        </mxCell>
        <mxCell id="iyi7Bei3RPa3BDMDdGdY-13" value="palabras" style="edgeLabel;html=1;align=center;verticalAlign=middle;resizable=0;points=[];" connectable="0" vertex="1" parent="iyi7Bei3RPa3BDMDdGdY-12">
          <mxGeometry x="0.912" y="2" relative="1" as="geometry">
            <mxPoint x="23" as="offset" />
          </mxGeometry>
        </mxCell>
        <mxCell id="iyi7Bei3RPa3BDMDdGdY-14" value="*" style="edgeLabel;html=1;align=center;verticalAlign=middle;resizable=0;points=[];" connectable="0" vertex="1" parent="iyi7Bei3RPa3BDMDdGdY-12">
          <mxGeometry x="0.8202" y="-3" relative="1" as="geometry">
            <mxPoint x="-2" y="20" as="offset" />
          </mxGeometry>
        </mxCell>
        <mxCell id="UMqGmO_odd1n6ftgBJWI-9" value="Wordle" style="swimlane;fontStyle=1;align=center;verticalAlign=top;childLayout=stackLayout;horizontal=1;startSize=26;horizontalStack=0;resizeParent=1;resizeParentMax=0;resizeLast=0;collapsible=1;marginBottom=0;whiteSpace=wrap;html=1;" vertex="1" parent="1">
          <mxGeometry x="320" y="-110" width="210" height="190" as="geometry" />
        </mxCell>
        <mxCell id="UMqGmO_odd1n6ftgBJWI-11" value="" style="line;strokeWidth=1;fillColor=none;align=left;verticalAlign=middle;spacingTop=-1;spacingLeft=3;spacingRight=3;rotatable=0;labelPosition=right;points=[];portConstraint=eastwest;strokeColor=inherit;" vertex="1" parent="UMqGmO_odd1n6ftgBJWI-9">
          <mxGeometry y="26" width="210" height="8" as="geometry" />
        </mxCell>
        <mxCell id="UMqGmO_odd1n6ftgBJWI-12" value="+ registrar_jugador(nombre)" style="text;strokeColor=none;fillColor=none;align=left;verticalAlign=top;spacingLeft=4;spacingRight=4;overflow=hidden;rotatable=0;points=[[0,0.5],[1,0.5]];portConstraint=eastwest;whiteSpace=wrap;html=1;" vertex="1" parent="UMqGmO_odd1n6ftgBJWI-9">
          <mxGeometry y="34" width="210" height="26" as="geometry" />
        </mxCell>
        <mxCell id="bw7rzwjcU0o7aJNVM1yu-4" value="+ mostrar_estadisticas(bool)" style="text;strokeColor=none;fillColor=none;align=left;verticalAlign=top;spacingLeft=4;spacingRight=4;overflow=hidden;rotatable=0;points=[[0,0.5],[1,0.5]];portConstraint=eastwest;whiteSpace=wrap;html=1;" vertex="1" parent="UMqGmO_odd1n6ftgBJWI-9">
          <mxGeometry y="60" width="210" height="26" as="geometry" />
        </mxCell>
        <mxCell id="iyi7Bei3RPa3BDMDdGdY-6" value="+ iniciar_juego(bool)" style="text;strokeColor=none;fillColor=none;align=left;verticalAlign=top;spacingLeft=4;spacingRight=4;overflow=hidden;rotatable=0;points=[[0,0.5],[1,0.5]];portConstraint=eastwest;whiteSpace=wrap;html=1;" vertex="1" parent="UMqGmO_odd1n6ftgBJWI-9">
          <mxGeometry y="86" width="210" height="26" as="geometry" />
        </mxCell>
        <mxCell id="upBl9LyAuur83N1DJL_g-2" value="+ significado_palabra()" style="text;strokeColor=none;fillColor=none;align=left;verticalAlign=top;spacingLeft=4;spacingRight=4;overflow=hidden;rotatable=0;points=[[0,0.5],[1,0.5]];portConstraint=eastwest;whiteSpace=wrap;html=1;" vertex="1" parent="UMqGmO_odd1n6ftgBJWI-9">
          <mxGeometry y="112" width="210" height="26" as="geometry" />
        </mxCell>
        <mxCell id="UMqGmO_odd1n6ftgBJWI-16" value="+ instrucciones(bool)" style="text;strokeColor=none;fillColor=none;align=left;verticalAlign=top;spacingLeft=4;spacingRight=4;overflow=hidden;rotatable=0;points=[[0,0.5],[1,0.5]];portConstraint=eastwest;whiteSpace=wrap;html=1;" vertex="1" parent="UMqGmO_odd1n6ftgBJWI-9">
          <mxGeometry y="138" width="210" height="26" as="geometry" />
        </mxCell>
        <mxCell id="UMqGmO_odd1n6ftgBJWI-17" value="+ finalizar_juego()" style="text;strokeColor=none;fillColor=none;align=left;verticalAlign=top;spacingLeft=4;spacingRight=4;overflow=hidden;rotatable=0;points=[[0,0.5],[1,0.5]];portConstraint=eastwest;whiteSpace=wrap;html=1;" vertex="1" parent="UMqGmO_odd1n6ftgBJWI-9">
          <mxGeometry y="164" width="210" height="26" as="geometry" />
        </mxCell>
      </root>
    </mxGraphModel>
  </diagram>
</mxfile>
